# xmcd
#
# Track frame offsets:
#	150
#	16082
#	33681
#	55807
#	72358
#	91469
#	112660
#	124187
#	142995
#	151268
#	164460
#	174860
#	195821
#	214883
#	232037
#	242538
#	260268
#	280783
#	297905
#	318027
#	336088
#
# Disc length: 4706 seconds
#
# Revision: 0
# Processed by: cddbd v1.5.2PL0 Copyright (c) Steve Scherf et al.
# Submitted via: audiograbber 1.83.01
#
DISCID=1a126015
DTITLE=Jean-Félix Lalanne - Autour de la guitare
DYEAR=2002
DGENRE=Blues
TTITLE0=01 - Jean-Félix Lalanne - Hérétique
TTITLE1=02 - Jean-Félix Lalanne - Bras dessus bras dessous
TTITLE2=03 - Nougaro and Le Forestier - La danse
TTITLE3=04 - Jean-Félix Lalanne - Miss
TTITLE4=05 - Jean-Félix Lalanne - Yohna
TTITLE5=06 - Maurane - Sur un prélude de Bach
TTITLE6=07 - Jean-Félix Lalanne - Mers et lunes
TTITLE7=08 - Arzel and Goldman and Yacoub - Un grand frère
TTITLE8=09 - Jean-Félix Lalanne - Tea time frealing
TTITLE9=10 - Jean-Félix Lalanne - Irish dance - Country medieval
TTITLE10=11 - Maurane and Lafontaine - Petite fugue
TTITLE11=12 - Jean-Félix Lalanne - Selena's dream
TTITLE12=13 - Jean-Félix Lalanne - Zapateado
TTITLE13=14 - Meyer - Alfonsina
TTITLE14=15 - Jean-Félix Lalanne - Suite irlandaise
TTITLE15=16 - Head and Jones - Say it ain't so
TTITLE16=17 - De Palmas - Johnny and Joe
TTITLE17=18 - Jean-Félix Lalanne - Le diset wedding
TTITLE18=19 - De Palmas and Arzel - Prends ma main
TTITLE19=20 - Levi - L'enfant
TTITLE20=21 - Jean-Félix Lalanne - Shoah des larmes
EXTD=YEAR: 2002
EXTT0=
EXTT1=
EXTT2=
EXTT3=
EXTT4=
EXTT5=
EXTT6=
EXTT7=
EXTT8=
EXTT9=
EXTT10=
EXTT11=
EXTT12=
EXTT13=
EXTT14=
EXTT15=
EXTT16=
EXTT17=
EXTT18=
EXTT19=
EXTT20=
PLAYORDER=
